<svg width="24" height="24" viewBox="0 0 24 24" fill="none" xmlns="http://www.w3.org/2000/svg">
<g id="vuesax/outline/wallet-check">
<g id="wallet-check">
<path id="Vector" d="M5 23.75C3.34 23.75 1.78 22.87 0.939999 21.44C0.489999 20.72 0.25 19.87 0.25 19C0.25 16.38 2.38 14.25 5 14.25C7.62 14.25 9.75 16.38 9.75 19C9.75 19.87 9.51 20.72 9.06 21.45C8.22 22.87 6.66 23.75 5 23.75ZM5 15.75C3.21 15.75 1.75 17.21 1.75 19C1.75 19.59 1.91 20.17 2.22 20.67C2.81 21.67 3.85 22.25 5 22.25C6.15 22.25 7.19 21.66 7.78 20.68C8.09 20.17 8.25 19.6 8.25 19C8.25 17.21 6.79 15.75 5 15.75Z" fill="#568CE8"/>
<path id="Vector_2" d="M4.42988 20.7396C4.23988 20.7396 4.04988 20.6696 3.89988 20.5196L2.90988 19.5296C2.61988 19.2396 2.61988 18.7595 2.90988 18.4695C3.19988 18.1795 3.67988 18.1795 3.96988 18.4695L4.44988 18.9496L6.04988 17.4695C6.34988 17.1895 6.82988 17.2096 7.10988 17.5096C7.38988 17.8096 7.36988 18.2896 7.06988 18.5696L4.93988 20.5396C4.78988 20.6696 4.60988 20.7396 4.42988 20.7396Z" fill="#568CE8"/>
<path id="Vector_3" d="M6.19004 7.80946C5.95004 7.80946 5.73005 7.69946 5.58005 7.49946C5.41005 7.26946 5.39005 6.96943 5.52005 6.71943C5.69005 6.37943 5.93005 6.04946 6.24005 5.74946L9.49005 2.48945C11.15 0.839453 13.85 0.839453 15.51 2.48945L17.26 4.26948C18 4.99948 18.45 5.97948 18.5 7.01948C18.51 7.24948 18.42 7.46946 18.25 7.61946C18.08 7.76946 17.85 7.83945 17.63 7.79945C17.43 7.76945 17.22 7.75947 17 7.75947H7.00005C6.76005 7.75947 6.53005 7.77946 6.30005 7.80946C6.27005 7.80946 6.23004 7.80946 6.19004 7.80946ZM7.86005 6.24946H16.82C16.69 5.90946 16.48 5.59947 16.2 5.31947L14.44 3.53944C13.37 2.47944 11.62 2.47944 10.54 3.53944L7.86005 6.24946Z" fill="#0AA660"/>
<path id="Vector_4" d="M17 22.75H7.62998C7.30998 22.75 7.02998 22.55 6.91998 22.26C6.80998 21.96 6.89998 21.63 7.13998 21.43C7.37998 21.23 7.59998 20.97 7.75998 20.69C8.07998 20.18 8.23998 19.6 8.23998 19.01C8.23998 17.22 6.77998 15.76 4.98998 15.76C4.05998 15.76 3.16998 16.16 2.54998 16.87C2.33998 17.1 2.00998 17.19 1.71998 17.08C1.42998 16.97 1.22998 16.69 1.22998 16.38V12C1.22998 8.92 3.12998 6.69001 6.07998 6.32001C6.34998 6.28001 6.65998 6.25 6.97998 6.25H16.98C17.22 6.25 17.53 6.26 17.85 6.31C20.8 6.65 22.73 8.89 22.73 12V17C22.75 20.44 20.44 22.75 17 22.75ZM9.17998 21.25H17C19.58 21.25 21.25 19.58 21.25 17V12C21.25 9.66 19.88 8.04998 17.66 7.78998C17.42 7.74998 17.21 7.75 17 7.75H6.99998C6.75998 7.75 6.52998 7.76999 6.29998 7.79999C4.09998 8.07999 2.74998 9.68 2.74998 12V14.82C3.42998 14.45 4.20998 14.25 4.99998 14.25C7.61998 14.25 9.74998 16.38 9.74998 19C9.74998 19.79 9.54998 20.57 9.17998 21.25Z" fill="#0AA660"/>
<path id="Vector_5" d="M22 17.25H19C17.48 17.25 16.25 16.02 16.25 14.5C16.25 12.98 17.48 11.75 19 11.75H22C22.41 11.75 22.75 12.09 22.75 12.5C22.75 12.91 22.41 13.25 22 13.25H19C18.31 13.25 17.75 13.81 17.75 14.5C17.75 15.19 18.31 15.75 19 15.75H22C22.41 15.75 22.75 16.09 22.75 16.5C22.75 16.91 22.41 17.25 22 17.25Z" fill="#0AA660"/>
</g>
</g>
</svg>
